/* XPM */
static char *ea[] = {
/* columns rows colors chars-per-pixel */
"64 64 141 2 ",
"   c #2D1A1A",
".  c #341E1E",
"X  c #262524",
"o  c #3A2121",
"O  c #302F2D",
"+  c #343331",
"@  c #3E3D3B",
"#  c #441D1D",
"$  c #481F1F",
"%  c #45201D",
"&  c #48221F",
"*  c #4B2120",
"=  c #542323",
"-  c #5C2424",
";  c #5F2925",
":  c #5E2828",
">  c #403F3C",
",  c #622726",
"<  c #682723",
"1  c #622A26",
"2  c #6D2926",
"3  c #642928",
"4  c #6C2B2B",
"5  c #742C25",
"6  c #7B2C24",
"7  c #732E2C",
"8  c #782F2A",
"9  c #6E312C",
"0  c #74322D",
"q  c #7C322C",
"w  c #7E392E",
"e  c #763230",
"r  c #793332",
"t  c #41403D",
"y  c #57224E",
"u  c #79365A",
"i  c #572475",
"p  c #612778",
"a  c #79367E",
"s  c #474643",
"d  c #504E4C",
"f  c #53514E",
"g  c #6C6966",
"h  c #6E6D69",
"j  c #706E6B",
"k  c #74736F",
"l  c #802F27",
"z  c #802828",
"x  c #83342C",
"c  c #8A362C",
"v  c #85382F",
"b  c #8E392F",
"n  c #9C3826",
"m  c #953C2D",
"M  c #993E2E",
"N  c #833631",
"B  c #843B31",
"V  c #8A3A32",
"C  c #973B31",
"Z  c #913C31",
"A  c #A23E2A",
"S  c #A83632",
"D  c #99402F",
"F  c #9C4332",
"G  c #A5432E",
"H  c #A8452F",
"J  c #A64A2E",
"K  c #A54631",
"L  c #A94731",
"P  c #A74832",
"I  c #AB4932",
"U  c #AB5132",
"Y  c #B95132",
"T  c #BF5D32",
"R  c #C85132",
"E  c #C3563F",
"W  c #C35E3F",
"Q  c #D67132",
"!  c #AB517E",
"~  c #846B66",
"^  c #856E69",
"/  c #87726C",
"(  c #89746E",
")  c #8B7771",
"_  c #8E7C76",
"`  c #8F7F79",
"'  c #91827C",
"]  c #B6837D",
"[  c #EAA25A",
"{  c #F2AD5A",
"}  c #F5B264",
"|  c #FFBD75",
" . c #FFC17E",
".. c #69559D",
"X. c #AB71A0",
"o. c #7980C1",
"O. c #938680",
"+. c #958B84",
"@. c #978E88",
"#. c #97908A",
"$. c #99948D",
"%. c #9B9790",
"&. c #9B9891",
"*. c #B49286",
"=. c #B89E91",
"-. c #B9A38F",
";. c #B9A495",
":. c #BAA699",
">. c #BBAC9D",
",. c #BDB09F",
"<. c #BEB3A4",
"1. c #BEB7A9",
"2. c #BFB8AA",
"3. c #DEB98D",
"4. c #C0BBAD",
"5. c #CABBAD",
"6. c #FFDF9C",
"7. c #FFC8A0",
"8. c #FFDEB8",
"9. c #FFE4A1",
"0. c #FFFFBB",
"q. c #AB90C1",
"w. c #BFBAC9",
"e. c #B9ADE0",
"r. c #B0DEFF",
"t. c #BFE1FF",
"y. c #D5C7D7",
"u. c #E5DEDE",
"i. c #FFFFC1",
"p. c #FFF4D7",
"a. c #C8C8FF",
"s. c #CADEF2",
"d. c #D6E4FF",
"f. c #CCFFFF",
"g. c #D5FFFF",
"h. c #D8FFFF",
"j. c #FFFFE1",
"k. c #E5FFFF",
"l. c #EAFFFF",
"z. c #F3FFFF",
"x. c white",
/* pixels */
"&.1 : r r r r r r r r r N r N r N N r r r r r r r r r r r r 4.4.4.4.r r r r r r r r r r r r r r r r r r r r r r r N u c B V 4.&.",
"1 : 3 I I I I I I I Z Z Z Z C r r r r r r N N r r Z Z Z r Z C 2.4.u E E E E r r r r r r r r r r r r r r u P x N P V V V r r 1 &.",
": I I I I I I I I C I I Z K P P P P I I I I I I Z Z Z I C Z Z 4.q E I I I I I I E I I I L I I I I I I r I I P P P K V r r r : 4.",
": I I I I I I I I I I I I Z I I I I I I I I I I I Z I I I Z Z 4.0 E I I E I I I I I I I E L K K S I I I I I I V I P V V B r 3 4.",
": I L L L L Z I I I I I Z I Z Z Z Z P P I P K L I P K P Z Z Z 4.r I I I I I I I P I I I I P P P P P V P P I P I P P V V V r r 2.",
": P L L L Z Z V L I Z L Z Z Z Z L Z C P L P P K P P K K Z r Z 4.r I I I I V L I L I P I P P I K P P V I P V I P P P P P B r r 2.",
": K V Z V V Z Z b Z V Z Z Z V Z Z Z Z Z Z L K K P K r Z Z r Z 4.r I I N K V V I I V V L V I V V V P V N V V V N V N V N N K V <.",
"- K b b H m b b b b m V Z V r Z Z V b Z Z b Z Z Z Z r r r r r 4.r P K K I V L V N V I V V V N V V V N V N V N V N V V N N N N >.",
"- b V c c V e c b 7 b b b e e e e b V b H b V r b b r r r r r 4.r K N L N V L V N c N V c V N c r e r N N N N N N N V x r x N +.",
"= c c c c c 7 e 7 7 7 V V c c 7 V e b b e 7 e V e e e e 7 8 0 2.r K N N N N N N N V N N L N N e 7 e x e N x x N N x S l x q q +.",
"= 7 c c c c c c 7 7 7 7 c c c c 7 7 9 0 7 e 7 7 7 e e = e 7 e 2.r C x e N e N N N N x x N N 7 7 7 4 7 4 4 7 4 4 4 r 8 4 q 8 * +.",
"= 4 c 4 4 c 4 7 7 7 4 7 4 c 7 7 9 9 e 0 7 7 7 7 7 7 7 - = 7 = 2.q c x 7 4 7 l 4 4 4 x q 8 r 4 4 4 4 4 3 = 3 4 3 3 < 8 , 5 < ) +.",
"= 4 4 4 N N 4 7 9 4 4 9 c 4 4 4 = = = 9 4 7 4 9 4 4 7 4 4 = = <.4 q q 4 8 4 4 4 4 4 4 8 8 4 3 3 , 3 * * 3 $ $ , , , : : - 2 < +.",
"= 4 4 x 4 4 4 4 4 4 = = = = = = & & = & = 4 4 4 4 7 7 7 0 : : 2.7 7 7 e 2 8 4 3 , , , , , , : $ , $ $ $ : $ $ : - - - - , - $ @.",
"-.X.7 4 e = = = = = = = = : = O.@ @ t y : = : o o : - = = = ' h ' 7 7 9 4 4 4 3 , , 4 , , 4 3 4 = . . = = = . = 4 4 4 4 4 * = _ ",
"#.&.&.&.&.&.2.2.2.2.2.2.2.2.2.&.&.&.&.&.&.&.&.2.2.2.&.&.&.&.k k k &.2.2.2.4.&.&.&.&.&.4.4.4.2.4.2.4.4.4.4.4.2.4.4.2.2.2.+ + &.&.",
"9 0 r r r 1 + s &.r r r r r r r r r r r r r r r r r r r r I I I r r r V r r r &.r r I I r r r r I I I I r r r r r r r r I I r r ",
"J U I r r r r + &.r r E E E I I I I I I I I I I I I I I I I I I I I I V I V r &.r I I I I I r I I I I I I I r I I I I E I I I I ",
"I I I I I r r r %.r I I I E I I I I I I I I I I I E I I I I I I I I I E I V r &.r I I E I I r I I I I I I I I I I I I E E I I I ",
"I J I I I P r r %.r I E E I I I E E I I V V I I I I I I I I I I I I I I E I V k r I I E E I I I I C I I I I I I I I I I I I I I ",
"L Z Z Z I I e e 4.8 L L L V I I I I I V V I I I P B V V V V V V V V I I I V e k r I I I I I E I I I I C C I I I I I I I I I I I ",
"Z b Z m Z L L r 4.L L L V V I I L V V c V V V V V V V V V V V V V V B D V V V k r I I I L I I I I I P P P Z P P K I I P I I L L ",
"b b m V Z V H e 4.L L L H H H J L V V V V V V V V V r V V V V V V V B V V V V k r I I I L I L L C C C C Z Z K K K K K G K K L b ",
"b b b b b m S 8 <.H H L x H x H V x v N x N V N V x V x V x N e N N P P L L x j 8 H S C Z b b b V V V V Z b A F b b b G S C b b ",
"b c c c c c b 7 4.7 A G x G x G q x x 0 e N 7 N 7 7 7 7 7 8 e e x x x G x v 7 h e A b b c b c b c b c b c c c c c b c c c c 7 b ",
"c 2 x c x c c 4 ,.4 x A A q q G q x q 4 l l l 7 r 7 7 7 8 7 7 4 q x q G x q 4 g Z c c c c c c b c c A b c c c c x c c c c c 2 c ",
"c l l c x c 2 4 <.4 8 8 q q 8 q q q 4 4 4 8 2 < 4 4 4 4 4 4 4 4 q q q q 8 8 3 +.7 x c z l , x l l l x l l 2 l c l c < x l x , 2 ",
", l l l z 8 , , +.8 , < , , < < , < 3 6 < , < 6 , < , , , , < , 1 , 5 5 1 , , +.7 , , , , , , , , , , l , , l z l l l , , , , , ",
"- 6 6 6 6 6 - - O 5 - , , # # # - , - - < - < - , , , 2 2 5 - - - - - 2 - - - ' 4 - - - - - - - , - - - - - - - - - : 6 8 6 - - ",
"= 6 5 6 6 6 - - O X - # # - # - - = # - = - - < - - i f.x.x.x.x.| = - y r.x.0.] , = = = - = = # = # # - = = - = - = 6 = 6 - = = ",
", l c c , , - *.h X X #     - - # # = - - - - - - , p f.6.z 2 4 4 4 4 ..l.u.x.3.@.e e e e - : - 7 * # = $ - - , - - - = = - - - ",
"4.%.%.%.%.%.k k k k &.&.$.%.%.2.4.4.4.4.4.4.4.:.<.1.w.l.p.5.2.2.4.4.4.s.j.y.z.8.&.%.2.4.4.4.k 4.4.4.4.4.4.4.4.4.4.4.4.4.4.2.1.1.",
"r r r r r r q u r r r r r r r r r r r r r F r 2.4.3 i g.9.b r w r w a g. .u t.i.S r w r r r r w r r w w w s k &.&.r r r r r r r ",
"I I I I E E E E E I I I I I I I I r r F F F r r 4.1 a g.x.x.x.j.Q U o.x.[ e e.x.{ U W W U U U U U U U r w 1 s &.r r I I r I I I ",
"I I I I I I I I I I I I I I I I I I I r F F r r 4.w a k.9.Y U U U U a.j.T U X.z.9.Y U W W U U U U W U U U U > &.r U r U I I E E ",
"I I I I I I I I I I I I I I I I I r I r r F F r 4.w ! h.9.Y U U U ! k.x.x.x.x.x.j.Q U W U W U U w w w w U U 1 &.r r P P I I E E ",
"I I I I I I I I I I I I F F F I I r I I I I r r 4.r X.h.9.Y U U U q.z.} U U U e.z.{ W U U W U U U U w ~ D J w &.r I I I I E I I ",
"I F I I I I I F I I F K F F F P I I I I I I F r 4.r ! h.x.z.x.x.7.d.j.Q U U U X.k.i.R U U U U U U w w w w 9 e &.r I I I E I P F ",
"K I I F I F F F F F F F F F F I I I I I I I F e s w J U w w w W U U U U U U B B W w w F D w U U U w w w e e e &.e I L L E L P P ",
"F F F I F I F F F V F F K F F F F F F F F I F + + v U c U U U B B B w U U w D B w w w w w w w w w U W w w w w &.8 L L H H L F C ",
"N F F F F F F N F F N N N K F F F F F F F F F s k w U U w w B B D w U w U w w w w w w w w D w w D w w w w 0 0 %.e L G G q r x M ",
"r N F F F F N N N F N F F F N F F F F F F F F r k D w U U D w w w w w D D w w w D w 9 w 0 0 w w 0 U w w w w 0 2.7 7 G M q G q G ",
"x N N N C N N N N N N r N N F B B N F F F F F r k w w w w w w w w w w w w w w w w w w w 0 w w w w w w J w w 0 1.4 7 S q q 8 8 8 ",
"q q q r q N N N r r r r r N N C N F N N C F C e j 0 w w w w w w w w w r w w J w d 9 w 9 9 9 9 9 w 0 0 w 0 9 9 <.4 A G 7 7 4 8 8 ",
"8 8 8 8 q r G q 7 7 e e 7 x N r x C q r r r m 7 g 9 9 w w w J 0 w w w w 0 0 J 0 9 w w 9 9 0 9 0 9 w 9 0 0 9 = ,.=.A 2 5 4 4 7 7 ",
"5 7 7 8 8 5 8 8 3 = = 3 4 4 4 4 q 8 4 8 q 5 4 = ' 4 4 9 1 4 4 4 : 9 1 9 1 9 9 1 2 1 1 1 & 1 1 5 1 1 1 1 3 * * @., n , , , , 2 5 ",
"< < < < 2 2 2 - $ * * , , , , 3 , 3 , , 1 , * , ( & * 1 ; ; 4 , : 1 1 1 ; ; ; ; ; ; ; ; & & ; ; ; ; ; ; %   ) @.- , - , # - 2 2 ",
"- = < = = = - f f f f       # # $ # $ # $ $ $ ^ / / % % % * $ $ * o o & % % % % % ~ ~ ~ ~ ~ % ; ; = ; ;     / @.^ - - # # - - - ",
"<.<.,.,.,.@.@.+.+.X.' _ ' ' ' @.@.,.>.,.,.,.,.+.>.>.>.,.<.<.4.4.4.4.4.4.4.4.4.4.4.$.$.#.+.+.+.+.g ,.k 2.4.$.$.%.$.$.%.4.#.4.4.4.",
"e r r r r r 3 : 0 F I I J I I q 4.: : r r r r r r r r r r r r r r r r r r r r r r r r r r r r k k k + ; r r e r e r r r r r e 6 ",
"F F F F F F r P J I I I I I I r 2.: 3 r P r I I I I I I I I I r L L I I S I I I I N r N V N r k k + ; w r r r r I I I I I I e M ",
"F F F F I F I K U J I I E I I r 2.3 r I I I I I I I I I I I I I I I I I I I I I I L L L N N N k k e w J I I I I I I I M I I I S ",
"I I I I F I I I I I F I I I I r 4.3 r P I I N E I I N I I I I I I I I I I I N I N I I I I I V k 2.r I I I I E J F I L L H I H H ",
"I I P K I F I I I F I F I I I r &.r r e I I N I I N I I I I I I I I I I I N N V N I I I I I N %.&.r I P I I L F H L C M M H M H ",
"I I I F I F F F I F I F F F I &.&.r r r N I N P N N N N V N V N N N c N N I N I N I I I I I e e %.e P H H L H H M M m M m M m A ",
"I I I F F F N B N F F F F K I r &.r r I N V N L I V I N N N N N N N V N V I N N N N I N L L L e $.0 H H H m H m m m M m m G A M ",
"I N C F N N F F N F F F F F F e k e e N N N N N N N N r N N N N N N N N N N L L L N N N N L L e @.7 G H A A C C m q 6 m A m A A ",
"N x N N M r N N N N D C D D F 0 j e N N r N N N N e N e N N N N N N x x r x x r N 8 8 8 8 A A 7 O.7 8 8 6 m 7 6 m 8 m b 7 n A A ",
"q q r q x q q q m m F q D C m 7 g 7 r N l x r 7 7 7 7 e 7 S z r e r 7 r 7 8 e 8 8 8 8 8 8 A A * _ 2 7 5 m 7 7 7 5 4 5 7 4 5 5 7 ",
"q 4 q q 8 q q 8 m m m m m m 4 4 O.- 8 8 8 r 8 7 e 4 4 4 4 4 4 4 4 4 7 < 7 7 2 7 5 7 7 2 7 A , * ) , 4 2 5 2 , 2 2 2 2 2 , 2 2 2 ",
"4 4 8 8 A 8 8 8 8 6 c m 4 4 4 4 ` = 2 7 7 4 4 4 4 4 3 3 3 3 3 3 , , 3 , , 2 2 2 , 4 2 2 : , - - ^ - $ - - , < 2 n < 2 - - - - , ",
"* 4 , , 2 2 , 7 c b < < c < 2 , _ * $ 3 , , , 3 , , , , $ , , , , - , - , - , 4 2 - - - - # # f ^ # - - - - < = = - = - - # # # ",
"* * * * & & $ & .     $ $ $ $ ) ) ( $ # , , , - , - - $ - - - - - - #   # # - - = = = # # # # d d # # $ $ $ $ $ $ $ $ # # # # # ",
",.,.,.>.:.;.;.;.-.;.;.;.;.;.;.;.:.:.:.:.>.>.>.>.>.>.>.>.>.>.:.>.>.:.>.:.>.>.>.:.>.=.=.=.=.=.=.:.:.:.:.:.:.:.=.:.;.;.;.:.>.:.;.=."
};
