/* XPM */
static char *so[] = {
/* columns rows colors chars-per-pixel */
"64 64 133 2 ",
"   c #2D1A1A",
".  c #341E1E",
"X  c #262524",
"o  c #3A2121",
"O  c #302F2D",
"+  c #343331",
"@  c #3E3D3B",
"#  c #441D1D",
"$  c #481F1F",
"%  c #45201D",
"&  c #48221F",
"*  c #4B2120",
"=  c #542323",
"-  c #5C2424",
";  c #5F2925",
":  c #5E2828",
">  c #403F3C",
",  c #622726",
"<  c #682723",
"1  c #622A26",
"2  c #6D2926",
"3  c #642929",
"4  c #6C2B2B",
"5  c #752222",
"6  c #752C25",
"7  c #7B2C24",
"8  c #732E2C",
"9  c #782F2A",
"0  c #6E312C",
"q  c #74322D",
"w  c #7C322C",
"e  c #7E392E",
"r  c #763230",
"t  c #793232",
"y  c #41403D",
"u  c #5D2450",
"i  c #79365A",
"p  c #5D2476",
"a  c #762E78",
"s  c #79367E",
"d  c #474643",
"f  c #504E4C",
"g  c #53514E",
"h  c #6C6966",
"j  c #6E6D69",
"k  c #706E6B",
"l  c #74736F",
"z  c #802F27",
"x  c #9B2828",
"c  c #83342C",
"v  c #8A362C",
"b  c #85382F",
"n  c #8E392F",
"m  c #9C3826",
"M  c #953C2D",
"N  c #993E2E",
"B  c #833631",
"V  c #843B31",
"C  c #8A3A32",
"Z  c #913632",
"A  c #913C31",
"S  c #9C3F30",
"D  c #A23E2A",
"F  c #A83632",
"G  c #99402F",
"H  c #9C4332",
"J  c #A5432E",
"K  c #A8452F",
"L  c #A64A2E",
"P  c #B25024",
"I  c #B85428",
"U  c #A54631",
"Y  c #A94731",
"T  c #A74832",
"R  c #AB4932",
"E  c #AB5132",
"W  c #C3563F",
"Q  c #C35E3F",
"!  c #846B66",
"~  c #856E69",
"^  c #87726C",
"/  c #8B7771",
"(  c #8E7C76",
")  c #8F7F79",
"_  c #91827C",
"`  c #E59A4E",
"'  c #E79D54",
"]  c #EAA25A",
"[  c #FFBE78",
"{  c #795DA0",
"}  c #5775BD",
"|  c #717ABD",
" . c #7B9BBD",
".. c #6598DD",
"X. c #938680",
"o. c #958B85",
"O. c #978E88",
"+. c #99948D",
"@. c #9B9790",
"#. c #9B9891",
"$. c #B49286",
"%. c #B89E91",
"&. c #B9A38F",
"*. c #B9A495",
"=. c #BAA699",
"-. c #BBAC9D",
";. c #BDB09F",
":. c #BEB3A4",
">. c #BEB7A9",
",. c #BFB9AA",
"<. c #CB9D82",
"1. c #DFBB91",
"2. c #C0BBAD",
"3. c #EEC99E",
"4. c #FFDE9B",
"5. c #F5DEBB",
"6. c #FFE1A0",
"7. c #FFFFBE",
"8. c #869DE0",
"9. c #91A2E0",
"0. c #9BBEFF",
"q. c #BAC5DE",
"w. c #B2DFFF",
"e. c #BFE1FF",
"r. c #FFFFC1",
"t. c #FFFFDF",
"y. c #C0D2E4",
"u. c #CADEF2",
"i. c #CCFFFF",
"p. c #D5FFFF",
"a. c #FFFFEB",
"s. c #EAFFFF",
"d. c white",
/* pixels */
"#.1 : t t t t t t t t B t B t B t B t t B t t t t t t t t t 2.2.2.2.t t t t t t t t t t t t t t t t t t t t t i 9 B t C C C ,.#.",
"1 : 3 R R R R R R R A A A A A t t t t t t t B t t A A A t A A 2.2.t W W W W t t t t t t t t t t t t t t t R B B R C C C i w : #.",
": R R R R R R R R A R R A U T T R R R Y R R R R A A A R A A A 2.t W R R R R R R W R R R U R R T R R R t R R T T U U B t t t : 2.",
": R R R R R R R R R R R R A R R R R R R R R R R R A R R T H A 2.t W R R W R R R R R R T W U T T R T R R R R R C R T C C C t 1 2.",
": R R R Y R A R R R R R A R A A A A R R R Y U U R T T T A A A 2.t R R R R R R R R R R R R T T Y T F C T T T R T T T C C C t t >.",
": R Y K U M A A R R A Y A A A A R A A Y R U Y U T T U U A t A 2.t R R R R C T T R R T R T R R T T T C T T C T T T T T R C t r ,.",
": U C Z C A n C Z M A C A A C A A C A A A U Y U T U t A A t A 2.t R T C T C C R R C C R C R C C Z T C B C C C C C B C B B T C :.",
"- U C n K n n n n n M C Z C t A A C M C A A A A Z A t t t t t 2.t T T T T C R C C B R C C B C B C C V C C C B B B C B B B C t ;.",
"- C v n n C 8 n v q C C Z 8 r r 8 C C n K Z C t Z C r r t t r ,.t T B T B B Y C C C C B Z B B C r t t B B B B B B B B c c B c o.",
"= v v v v v 8 8 8 8 8 C n n n 8 Z r C Z q 8 r C 8 r r r q r r >.t F C B B Z B B B c C B Y B c r r 8 B r B c c B w c J c w w w o.",
"= 8 v v v v Z v 8 8 8 8 v n v v r 8 4 r 8 r 8 8 q 8 r - 8 q r >.t S B r B 8 B B B B c c B B 8 8 4 8 4 4 4 4 4 4 4 w 9 4 9 7 * o.",
"= 4 v 4 4 v 4 4 4 8 4 8 8 c 8 8 4 8 8 r 8 8 8 8 8 8 8 = - 8 : >.t B c 4 8 4 t 4 4 4 c 9 9 t 4 4 4 4 3 4 = 4 4 3 4 , 9 , 9 , / o.",
"= 8 4 4 B B 4 8 8 4 0 0 c 4 4 8 = = = 4 4 8 4 8 8 4 8 4 4 = = :.4 9 t 4 9 4 4 4 4 4 4 9 9 4 3 3 3 , = $ , $ * , , , , : , 2 , o.",
"* 4 4 v 4 0 4 4 4 4 * = = = * = = * * = = 4 4 4 4 8 8 8 0 : : ,.9 8 8 9 4 9 < 4 , , , , , , , * , $ $ $ : $ $ - - - - - , - $ o.",
"*.) 4 4 0 = = = - = = = = - = X.@ @ > > - : : O o = - - = = _ j _ r r 4 4 2 4 , , , 4 , , 4 3 3 = . . = = = . = 4 4 4 4 4 * = ( ",
"#.#.#.#.#.#.,.,.,.,.,.,.,.2.2.#.#.#.#.#.#.#.#.,.,.,.#.#.#.#.l l l #.,.,.2.2.@.@.#.#.#.2.2.2.2.2.,.2.2.2.2.2.2.2.,.,.2.2.+ + #.#.",
"t t t t t , + d #.t t t t t t t t t t t t t t t t t t t t R R R t t t C t t t #.t t R R t t t t T R R R t t t t t t t t R R t t ",
"R R R t t t t + #.t t W W W R R R R R R R R R R R R R R R R R R R R R C R C t #.t R R R R R t R R R R R R R t R R R R W R R R R ",
"R R R R R t t t #.t R R Y W R R R R R R R R R R R W R R R R R R R R R W R C t #.t R R W R R t R R R R R R R R R R R R W W R R R ",
"R Y R R Y Y t t #.t R W W R R R W W R R C C R R R R R R R R R R R R R R W R C l t R R W W R R R R Z R R R R R R R R R R R R R R ",
"Y A C A Y R t t 2.9 R Y R C R R Y R Y C C R R R R C C C C C C C C C R R Y C t l t R R R R R W R R R R A A R R R R R R Y R R R R ",
"C A M M Z R Y t 2.R Y Y C v K R Y C C C C C C C C C C C C C C C C C C C C C C l t Y R R R R R R R R Y Y R A R T Y Y Y U R R R K ",
"M n n Z A Z Y 9 >.K K R U K K R Y b C C C C C C C C t C C C B C C C C C C C C k t R R Y R R K K Z A A A A A U U U U U U J J K M ",
"n n n n n Z U 8 2.J K K b J c J b b b b B v b B b c b B C B Z r c C R R K Y C k 9 K K Z C n M Z Z A A A A Z J G Z n n J U Z n C ",
"v v v v v n v 8 :.8 J D c J c J c c c q r c 8 c 8 r 8 8 8 8 r r c B c J b c 0 j 9 D Z n n v n v v n v n v v v m v v v v n v 4 n ",
"v 4 v v v v v 4 :.4 c D D c w J w c w 4 w c w 8 w 8 4 8 c 4 4 4 w w z J w c 4 h Z v v v v v v v v v D v v v v v v v v v v v 4 v ",
"z c z c c c 4 4 :.4 w 9 w w w 7 9 w 4 4 4 7 4 2 4 4 4 4 2 2 < 2 w 9 w 9 9 9 4 o.t c c z z , c c z c z c z 4 z z z v < c c z < 4 ",
"< z z z z 7 , < o.9 , , < , , , , 3 < 6 < , , 6 < < , , 0.d.d.[ 1 1 a p.d.d.t.<.4 , , , , , , , , , , z , , z z z z z , , , : , ",
", 7 7 7 7 7 - - O 6 , - , # # # , , - - , , - , , , - | d.` -  .P p i.7.x u w.a.I = - - - - - - , - - - - - - - - - - z 7 7 , - ",
"= 7 7 7 5 7 = - O X - # # - # - - - # - - - - < = = - } d.4.5 = = } d.` = # ..d.' = = - = = = # = # # = = = - = = - 5 = 7 = = = ",
", z v c 3 , : $.j X X #     : : # # - : - - : : , - , - 0.d.d.7.x 8.d.' < = q.d.3.r t t 9 - , : 2 = $ = # - - , , - = - - = - = ",
"2.#.@.@.#.#.l l l l #.#.+.+.+.2.:.:.>.,.:.>.:.:.2.2.2.2.2.2.u.d.5.y.d.5.2.>.u.d.1.#.,.2.2.2.k 2.2.2.2.2.2.2.2.2.2.2.2.2.2.2.2.2.",
"t t t t t w w i t t t t t t t t t t t t t H t 2.2.: 3 9.' 0  .d.] s p.6.Z i e.r.H t e g e e t e t t e t e f l #.#.0 t t t t t t ",
"R R R R W W W W W R R R R R R R R t t H H H t t 2.: e i w.d.d.4.E E { s.d.d.r.F E E Q Q E E E E E E E e e : d #.r e E T t T R T ",
"R R R R R R R R R R R R R R R R R R R t H H t t 2.e t E R E E E E E E E t E E E Q E E Q Q E E E E E E E E E : #.r E t T R R W W ",
"R R R R R R R R R R R R R R R R R t R t t H H t 2.e E C E E E E E E E E E E E E E E E Q E Q E E e G e e E E : #.t t T E R R W W ",
"R R R R R R R R R R R R H H H R R t R R R R t t 2.t E E E E E E E E E Q E E E E E E Q E E Q E E E E V V ! E q #.t R R R R W R R ",
"R H R R R R R H R R H U H H H T R R R R R R H t 2.t E e E Q e e E E E E E E E E E Q E E E E E E E e V V e e e #.t R R Y W R T H ",
"H R R H R H H H H H H H H H H R R R R R R R U t d g E E V V V E E E E E E E G e E e e e e G E E E e V V q t t #.t Y Y Y W R R T ",
"H H H R H R H H H C H H U H H H H H H U H R H + + e E H E E E V e e e E E G e e e e H e e e e e e E E e e t t #.9 Y Y Y U U S S ",
"B H H H H H H B H H B B C H H H H H H H H H H d l e E E e e V V V V E V L e e G e e e e e e e G G e e e e q q @.r F J D t w c A ",
"B B H H H H B B B H B H H H B H H H H H H H H t l G e E E G V e e V e V e G e e e e e e e q e e q E e e e e q >.8 r U S w K 9 K ",
"t B t B H B B B B B B t B B H B C B H H H H H t l e e G e e e e e e e V e e e e e e 0 e q e e e e e e L e e q >.0 8 D 9 w 9 9 9 ",
"w c c w B t B B t t t t t B B H t H B B S S A t k 0 q e e e e e e e e e e e L e 0 0 e 0 0 0 0 0 q q e q q 0 0 :.4 D D t 9 4 9 9 ",
"9 9 9 9 9 w J c 8 8 r r 8 B t B c A c t t w N 4 h 0 0 e e q L w e e e e q q H e 0 e w 0 1 e 0 q q e q q q 0 = :.%.D < 9 4 4 8 8 ",
"6 6 6 6 8 8 8 8 4 = * 4 4 4 4 4 9 9 4 9 9 8 4 = _ 0 0 1 1 4 4 4 0 0 1 0 0 1 0 1 y : 2 1 & 1 1 2 1 1 1 1 < * * O., D , , , , 6 2 ",
"4 < < 2 2 2 2 , $ * $ , , , , , , 3 3 , , , $ , / & & 1 1 1 4 , : 1 ; ; ; ; ; ; 0 1 ; ; & % 1 ; ; ; ; ; #   / o.- - , - # , 2 2 ",
"= = < = = = - f f g g       # $ # $ # $ $ $ $ ~ ~ ^ & % % & # $ + % % % % % % % & ! ! ! ~ ~ % ; ; = ; ;     / o.~ , = # # - - = ",
":.:.;.;.:.O.o.o.o.X.( ( ) X.X.o.O.-.-.:.:.-.-.o.-.-.-.;.2.>.2.2.2.2.2.2.>.2.2.2.2.+.+.O.O.o.o.O.h ;.j 2.>.+.+.#.+.+.+.2.O.:.2.2.",
"t t t t t t 3 3 t R R R R R T t ,.: : t t t t t t t t t t t 9 t t t t t r t t t t t t t t t t l l l + ; t t t t t t t t t t t 9 ",
"H H S H H H t R R R R R R R R t 2.3 3 t R t R R R R R R R R R t Y Y R R Y Y R R R B t B B B t l l + ; e t t t t R R R R R Y t S ",
"H H H H R H R H R R R R W R R t 2.: t R R R R R R R R R R R R R R R R R R Y R R R R R R B B B l l q e E R R R R Y R R H Y Y Y Y ",
"R R R R U T R R R R H R R R R t 2.3 t T R R B W R R B R R R R R R R R R R R C R B R R R R R B l ,.r R R R R W K H Y Y Y Y Y K K ",
"R R R H R H R T R H R H R R R t #.t t t R R B R R B R R R R R R R R R R R B B B B R R R R R B #.#.r R R R Y Y H Y Y N N S U N J ",
"R R R H R H H H R H T H H H R #.#.t t t B R B R B B B C B B C B B B B Z B R B R B R R R R R 9 t #.r T K K Y K K N N N N N M M J ",
"R R R H H H C B B H H U H H R t #.t t R B B B R R B R B B B B B B B B B B R B Z B B R B R U U r +.q J R J G J N N N M M M J D M ",
"U B H H B B H H B H H H H H H r l t t B B B B B B B B B B B B B B B B B B B U U Y B t B c U Y 8 o.8 J J K D M Z M 8 9 M D M D D ",
"B B c B A B c B B B A S S S A r j r t B c B B B c r t t B c t B B B B c t c t c c t w w w J U 4 X.8 9 9 9 M 9 9 M 8 v M 8 D D D ",
"w w w t c w w w S A M c N N N 8 h 8 B 9 t B 9 8 8 r 8 r 4 F t c t 9 8 9 8 9 9 9 8 9 9 8 9 D D = ) 4 8 6 m 4 6 8 6 6 4 6 6 6 2 6 ",
"w 4 w 9 w w 9 w A M M M M M 8 4 X.- 9 t 9 9 9 8 8 4 4 0 4 4 4 4 4 4 8 4 8 8 4 8 8 6 6 6 6 m , * / , 4 6 2 2 , 2 2 2 2 2 : 2 2 2 ",
"4 4 8 8 U q 8 9 9 7 v M 3 4 4 4 ) = 4 8 9 3 4 3 4 4 3 3 3 3 3 3 < , < , , 2 2 2 - < 5 2 , , - - ~ - $ - , - 2 2 m 2 4 - - - - , ",
"* 4 4 < 3 3 3 8 v v < , v < 4 , ( * * 3 , 3 3 3 , , , 3 $ , , , , - , - , , , 2 5 - - - - # # g ~ # - - = - < = - = = - - # # # ",
"* $ $ $ * * $ &   . . $ * $ # / / ^ * * , , , : : , , # : - - : - - $   # # = = - = = . # # # f f # # $ * $ $ $ $ $ $ # # # # # ",
";.:.-.-.<.*.*.*.*.&.*.*.*.*.%.*.=.=.=.=.=.=.-.-.-.-.=.=.-.-.=.=.=.=.=.=.%.2.%.2.2.%.%.%.%.%.%.=.=.=.=.=.%.=.=.%.=.%.=.=.=.=.=.%."
};
