/* XPM */
static char *wall[] = {
/* columns rows colors chars-per-pixel */
"64 64 48 1 ",
"  c #252826",
". c #2B2B2A",
"X c #2C2C28",
"o c #28292C",
"O c #2F3131",
"+ c #333533",
"@ c #313234",
"# c #393938",
"$ c #38383A",
"% c #3B3D3A",
"& c #424346",
"* c #434545",
"= c #4B4C4E",
"- c #525357",
"; c #555756",
": c #565658",
"> c #5C5C5E",
", c #5E605F",
"< c #5B5C60",
"1 c #5E5F63",
"2 c #656766",
"3 c #7B7D7A",
"4 c #7C7D7F",
"5 c #7C7C82",
"6 c #8A8B8F",
"7 c #8E908F",
"8 c #919390",
"9 c #929397",
"0 c #939498",
"q c #949599",
"w c #969799",
"e c #94959A",
"r c #95969A",
"t c #96979B",
"y c #9D9F9E",
"u c #A3A4A6",
"i c #AAABAD",
"p c #B3B5B4",
"a c #B4B5B8",
"s c #BABCB9",
"d c #BCBDBF",
"f c #C1C2C7",
"g c #C4C5C7",
"h c #CACCCC",
"j c #D3D4D6",
"k c #D5D7D7",
"l c #D5D6DA",
"z c #DADBDD",
/* pixels */
"jjjjjjjlljjjjjjjjjjjjjjjjjljjjjjjjjjjjjjjjjjjjjjjjjjjjjj2.7kjjlj",
"jjjjllllllllllllljllllllllljjjjjjjjjlllllllllllllllllllz2 7kjlll",
"jjiuuuuuuuuuuuuuuuuuuuuuuuuuuuuuuuuuuuuuuuuuuuuuuuuuuu54=O7kguuu",
"jju90999999999999900000900000009900000000999999999999r:>*O7kf999",
"jjuq00eee000q000000000000qqqqqqqqerr0000000000000q00qt<>*O7kg0e0",
"jju00qqeeqqqqqqqqqqqqqq0qqqqqqqqqqqqqqqqq0qqqqqqqrq0qt<1*O7kg9eq",
"jju0eqqeeqqqqqqqqqqqqqe0qqqqqqqqqqqqqqqqe0qqqqqqqrq0qt<1*O7kg9eq",
"jju0eqqeeqqqqqqqqqqqqqe0qqqeeeeeeeeeqqqqe0qqqqqqqrq0qt<1*O7kg9eq",
"jju00qqeeqqqqqqqqqqqqq00qqqeeeeeeeeeqqqqe0qqqqqqqrq0qt<1*O7kg9eq",
"jju0eqqeeqqqqqqqqqqqqqq00r0qqrqqqqqqqqqqe0qqqqqqqqqq0t<1*O7kg9eq",
"jju00qqeeqqqqqqqqqqqqqq00r0qqrqqqqqqqqqqe0qqqqqqqqqq0t<1*O7kg9eq",
"jju0eqqeeqqqqqqqqqqqqqq00r0qqrqqqqqqqqqqe0qqqqqqqqqq0t<1*O7kg9eq",
"jju0eqqeeqqqqqqqqqqqqqq00r0qqrqqqqqqqqqqe0qqqqqqqqqq0t<1*O7kg9eq",
"jju0qrreeqqqqqqqqqqqqqq00qqqqqqq0qqq00e0qqqqrrrrrqqqqt<1*O7kg9er",
"jju00qqeeqqqqqqqqqqqqq0000qqqqqqqqqq000000qqqqqqqqqqqt<1*O7kg9eq",
"jju0000eeqqqqqqqqqqqqqq0qqqqqqqqqqrrqqqqqqqqr0000qqqqt<1*O7kg9e0",
"jju90qqee0000qqqqqqqqqqqqrrqqqqq00qqqqqqqqqqrqqqqqqqqt<1*O7kg99q",
"jjuqrttttttttttttttttttttttttttrrtttttttrrtttttttttttt<1*O7kgqet",
"ll4:<<<<<<<<<<<<<<<<<<<<<<<<<<<<<<<<<<<<<<<<<<<<<<<<<<11&@9ld-<<",
"jz4>>111111111>11111111111111111111111111111111111111111&@9zd:11",
"22=***************&&&&&&&&&&&&&&&&&&********************%#;2,***",
"..OOOOOOOOOOOOO+OOOOOOOOOOOOO##+OOOOOOOOOOOOOOOOOOOOOOOO+OO..OOO",
"77777777777777777777777777777;+277777777777777777777777777777777",
"kkkkkkkkkkkkkkkkkkkkkkkkkkkkk2.7kkkkkkkkkkkkkkkkkkkkkkkkkkkkkkkk",
"gggggggggggggggggggggggggggad1@6jjgggggggggggggggggggggggggggggg",
"99999999999999999999999999r:<&@6lf999990999999999999999999999999",
"eeeeeeeeeeeeeeeeee990qqqqqt<1&@6lf90e9ee9eee9eeeeeeeeeeeeeeeeeee",
"qqqqqqqqqqqqqqqqqq00rrrqqqt<1*O7kg9e0qrtrqqqqqqqqqqqqqqqqqqqqqqq",
"qqqqqqqqqqqqqqqqqq0qqrrqqqt<1*O7kg9e00qrrrrrrqqqqqqqqqqqqqqqqqqq",
"qqqqqqqqqqqqqqqqqqqqqrqqqqt<1*O7kg9errrrrrrrrqqqqqqqqqqqqqqqqqqq",
"qqqqqqqqqqqqqqqqqqrqqqqqqqt<>*O7kg9eqqq0qqqqqqqqqqqqqqqqqqqqqqqq",
"qqqqqqqqqqqqqqqrrrrqqqqqqqt<1*O7kg9errrrqqqqqqqqqqqqqqqqqqqqqqqq",
"qqqqqqqqqqqqq00qqqqqqqqqqqt<>*O7kg9eqqqqqqqqqqqqqqqqqqqqqqqqqqqq",
"qqqqqqqqqqqqqqqrrrqqqqqqqqt<1*O7kg9eqqqqqqqqqqqqqqqqqqqqqqqqqqqq",
"qqqqqqqqqqqqqq0qqqqqqqqqqqt<1*O7kg9eqqqqqqqqqqqqqqqqqqqqqqqqqqqq",
"qqqqqqqqqqqqqqqrrrqqqqqqqqt<1*O7kg9eqqqqqqqqqqqqqqqqqqqqqqqqqqqq",
"qqqqqqqqqqqqqqqqrrqqqq0000t<1&O7kg9eqqqrrqqqqqqqqqqqqqqqqqqqqqqq",
"qqqqqqqqqqqqqqqqrrqqqqqqqqt<1&O7kg9eqqqrrqqqqqqqqqqqqqqqqqqqqqqq",
"qqqqqqqqqqqqqqqqrrrrrreqrqt<1&O7kg9eqqqreqqqqqqqqqqqqqqqqqqqqqqq",
"wwwwwwwwwwwwwwwwwtwwwwrrwwt<1&O7kg0rwwwtwwwwwwwwwwwwwwwwwwwwwwww",
"444444444444444444444444444<1*+7kd444444444444444444444444444444",
">>>>>>>>>>>>>>>>>>>>>>>>>>><1*+7kd:<>>>>>>>>>>>>>>>>>>>>>>>>>>>>",
":::::::::::::::::::::::::::::*+3sy::::::::::::::::::::::::::::::",
"$$$$$$$$$$$$$$$$$$$$$$$$$$$$#%%#X++$$$$$$$$$$$$$$$$$$$$$$$$$$$$$",
"...........................o.. XXO.o....................##O.....",
"kkkkkjjjjjjjjjjjjjjjjjjjjjjjjjjjjjjjjjjjjjjjjjjjjjjjjjlz2.8kjllj",
"jkjkjjjjjjjjjjjjjjjjjjjjjjjjjjjjjjjjjjjjjjjjjjjjjjjjjjlz2.7kjllj",
"kkpuuuuuuuuuuuuuuuuuuuuuuuuuuuuuuuuuuuuuuuuuuuuuuuuuuu54=.7kguuu",
"hku79999900009999999999000099999999900000000000009999r->*O7kg9e0",
"jjuw00e000000qqqqqqqqqq00q0qqrqqqqqq0000000000000qqqqt<1*O7kg0e0",
"jju00qqqqqqqqqqqqqqqqqq00r0qqrqqqqqqqqqqq0qqqqqqqrq0qt<1*O8kg9eq",
"jju0eqqqeqqqqqqqqqqqqqq00reqerqqqqqqqqqqe0qqqqqqqrq0qt<1*O7kg9eq",
"jju00qqeeeeeeeeeeeeeeeeeeeeeeeeeeeeeeeeeeeeeeeeeeeeeet<1*O7kg9ee",
"jju00qeeeeeeeeeeeeeeeeeeeeeeeeeeeeeeeeeeeeeeeeeeeeeeet<1*O7kg9ee",
"jju0eqqeeqqqqqqqqqqqqqq00r0qqrqqqqqqqqqq00qqqqqqqrq0qt<1*O7kg9eq",
"jju00qqeeqqqqqqqqqqqqqq00r0qqrqqqqqqqqqqe0qqqqqqqrq0qt<1*O7kg9eq",
"jju0eqqeeqqqqqqqqqqqqqq00r0qqrqqqqqqqqqqe0qqqqqqqrq0qt<1*O7kg9eq",
"jju0eqqeeqqqqqqqqqqqqqq90r0qqrqqqqqqqqqq00qqqqqqqrq0qt<1*O7kg9eq",
"jju00qqeeqqqqqqqqrqqqqq00rqqqqqq0qqqqqqqqqqqrqqqqqqqqt<1*O7kg9eq",
"jju00qqeeqqqq00qqqqqqq00qqqqqqq0000qqqqq00qqqqqqq0000t<1*O7kg9eq",
"jju0eqqeeqqqqqqqqrqqqqqqqqrqqqqq0qqqqqqqqqqqrqqqqe000t<1*O7kg9eq",
"jju90qqeeqqqqqqqqrqqqqqqqqrqqqqqqqrrqqqqqqqqrqqqqq000t<1*O7kg9eq",
"jjuqrttttttttrrtttttttrrttttttttttttttttrrtttttttttttt<1*O7kg0tt",
"jl4<<<<<<<<<<<<<<<<<<<<<<<<<<<<<<<<<<<<<<<<<<<<<<<<<<<,,*+7ks;><"
};
