/* XPM */
static char *no[] = {
/* columns rows colors chars-per-pixel */
"64 64 151 2 ",
"   c #2D1A1A",
".  c #341E1E",
"X  c #262524",
"o  c #3A2121",
"O  c #302F2D",
"+  c #343331",
"@  c #3E3D3B",
"#  c #441D1D",
"$  c #481F1F",
"%  c #45201D",
"&  c #48221F",
"*  c #4B2120",
"=  c #542323",
"-  c #5C2424",
";  c #5F2925",
":  c #5E2828",
">  c #622726",
",  c #682723",
"<  c #622A26",
"1  c #6D2A26",
"2  c #642928",
"3  c #6C2B2B",
"4  c #7B2424",
"5  c #742B25",
"6  c #7B2C24",
"7  c #732E2C",
"8  c #792F2A",
"9  c #6E312C",
"0  c #74322D",
"q  c #7C322C",
"w  c #7E392E",
"e  c #763230",
"r  c #793332",
"t  c #41403D",
"y  c #421C4A",
"u  c #58234E",
"i  c #5E2651",
"p  c #632752",
"a  c #712B50",
"s  c #79335A",
"d  c #562275",
"f  c #474643",
"g  c #504E4C",
"h  c #53514E",
"j  c #6C6966",
"k  c #6E6D69",
"l  c #706E6B",
"z  c #74736F",
"x  c #802F27",
"c  c #932323",
"v  c #9C2727",
"b  c #83342C",
"n  c #8A362C",
"m  c #85382F",
"M  c #8E392F",
"N  c #9C3826",
"B  c #953C2D",
"V  c #993E2E",
"C  c #833631",
"Z  c #843B31",
"A  c #8A3A32",
"S  c #913632",
"D  c #913C31",
"F  c #9C3F30",
"G  c #A02C2C",
"H  c #A23E2A",
"J  c #A83632",
"K  c #99402F",
"L  c #9C4332",
"P  c #AF4E22",
"I  c #A5432E",
"U  c #A8452F",
"Y  c #A64A2E",
"T  c #A54631",
"R  c #A94731",
"E  c #A74832",
"W  c #AB4932",
"Q  c #AB5132",
"!  c #C85132",
"~  c #C3563F",
"^  c #C35E3F",
"/  c #9C435A",
"(  c #AB515A",
")  c #846B66",
"_  c #856E69",
"`  c #87726C",
"'  c #89746E",
"]  c #8B7771",
"[  c #8E7C76",
"{  c #8F7F79",
"}  c #D58032",
"|  c #E49032",
" . c #91827C",
".. c #E79C51",
"X. c #E99F58",
"o. c #F2AD5A",
"O. c #EAA27E",
"+. c #FFBF78",
"@. c #FFC17E",
"#. c #76579C",
"$. c #667BBF",
"%. c #AB71A0",
"&. c #7980C1",
"*. c #7B9BDF",
"=. c #938680",
"-. c #958B85",
";. c #978E88",
":. c #99948D",
">. c #9B9790",
",. c #9B9891",
"<. c #B49286",
"1. c #B89E91",
"2. c #B9A38F",
"3. c #B9A495",
"4. c #BAA799",
"5. c #BBAC9D",
"6. c #BDB09F",
"7. c #BEB3A4",
"8. c #BEB7A9",
"9. c #BFB8AA",
"0. c #BDB4B8",
"q. c #C0BBAD",
"w. c #D5BBAD",
"e. c #D5BBBB",
"r. c #FFDF9D",
"t. c #EFCDA5",
"y. c #FFD9AE",
"u. c #FFFFBE",
"i. c #999CDF",
"p. c #B9ADE0",
"a. c #CAB7C8",
"s. c #ACCDED",
"d. c #A8C1FF",
"f. c #B4DFFF",
"g. c #BBDEFF",
"h. c #BFE0FF",
"j. c #FFDEDE",
"k. c #FFE9C9",
"l. c #FFFFC1",
"z. c #FFF4D7",
"x. c #C0D2E4",
"c. c #C8C8FF",
"v. c #D5C1FF",
"b. c #C9ECFF",
"n. c #CAFFFF",
"m. c #DEF2FF",
"M. c #FFFFE3",
"N. c #E5FFFF",
"B. c #EAFFFF",
"V. c #F2FFFF",
"C. c white",
/* pixels */
",.< : r r r r r r r r C r C r C r C r C r r r r r r r r r r q.q.q.q.r r r r r r r r r r r r r r r r r r r r r r r C a K Z Z 9.,.",
"< : 2 W W W W W W W D D D D D r r r r r r r r C r D L D r D D q.q.r ~ ~ ~ ~ r r r r r r r r r r r r r r q W C C W A A A r r 2 ,.",
": W W W W W W W W D W W D T E E E W W W W W W W D D D E D D D q.r ~ W W W W W W ~ W W E W W W W W W W r W W U / E E A r r r : 9.",
": W W W W W W W W W W W W D W W E W W W W W W W W D W W W D D q.r ~ W W ~ W W W W E W W ~ T T T E E W W W W W A E E A A K r : q.",
": W R R W R D W W R W W D W D D D D R W W R E T E E E E D D D q.r W W W W W W W W W W W W W E W W E C E W W E E E W A C w w r 8.",
": W R R E D A D R W D R D D D D R D D W T E R E E E T E D r D q.r W W W W S E E W W W W T E W W T W S E E A E T E E E E Z a e 9.",
": T M M A M A D D D D M D D D A D D D D D T E E E T r D D r D q.r W W A E A A W W A C W C W C C S E C A A A A A C C A A A T A 7.",
"- T A M U B S M M M M D S A r D D A B A S D S D S D e r r r r q.r E E E W A W A A A W A A C A A A C A A A C C A A C b C C Z Z 5.",
"= M n M n M 7 M M 7 A M A e e 7 e A A M T M A r M M r e 0 r r 9.r T C E C C W M A C M A C C S A r e r C C C C C C A C b b C C -.",
"= n n M n M 7 7 7 7 7 A n M n e C 7 M B e e e A e e e 7 r 0 e 9.r J C C C C C C C C C C R C C e 7 e b e C b b C q b T q 8 b 8 -.",
"= 0 n b n n n n 7 7 7 7 n A n n 7 7 e 7 7 7 7 7 7 e e - 7 7 e 9.r F C e C e b C C C b b C b 7 7 7 3 7 3 3 7 3 3 3 8 8 1 8 8 * -.",
"= 3 n 3 7 b 3 7 7 3 7 7 3 n 7 7 7 7 7 7 7 7 7 7 7 7 e = - 7 = 8.8 A r 7 3 7 q 7 7 3 b 8 8 r 3 3 3 3 3 2 = 2 3 2 3 2 8 2 8 2 ] -.",
"= 3 3 3 n b 3 3 3 3 7 3 n 7 3 7 = = = 9 7 3 3 3 3 3 7 3 3 = = 8.7 8 8 3 q 3 3 3 3 3 3 7 8 2 3 > > > * * > * * > > > > > > , > =.",
"= 3 3 n 3 3 3 7 3 3 = = = * * = = * * = = 7 3 3 3 7 7 7 0 : : 9.7 7 7 7 2 8 2 2 2 > 2 > > 2 > $ > $ $ $ : $ # : - - - - > - $ ;.",
"3.{ 3 3 9 = = = : = = = = = = =.@ @ t t = : : o o : - = = =  .k =.7 e 9 7 3 3 2 > 2 > 2 , 3 2 2 = . . = = = . = 3 3 3 3 2 * - [ ",
",.,.,.,.,.,.0.9.9.8.9.q.q.q.q.,.,.,.,.,.,.,.,.9.9.0.,.,.,.,.z z z ,.9.9.9.9.,.,.>.,.,.q.q.q.q.q.0.q.q.q.q.q.9.q.q.9.q.q.+ + >.>.",
"r r r r r > + f ,.r r r r r r r r r r r r r r r r r r r r W W W r r r A r r r ,.r r W W r r r r W W W W r r r r r r r r W W r r ",
"W W W r r r r + ,.r r ~ ~ ~ W W W W W W W W W W W W W W W W W W W W W A W A r ,.r W W W W W q W W W W W W W r W W W W ~ W W W W ",
"W W W W W r r r ,.r W W W ~ W W W W W W W W W W W ~ W W W W W W W W W ~ W A r ,.r W W ~ W W r W W W W W W W W W W W W ~ ~ W W W ",
"W W W W W W r r :.r W ~ ~ W W W ~ ~ W W A A W W W W W W W W W W W W W W ~ W A z r W W ~ ~ W W W W S W W W W W W W W W W W W W W ",
"R D D D R R r r q.0 W R W A R W W W W A A W W W W A A A A A A A A A W W R A r z r W W W W W ~ W W W W D D W W W W W W R W W W W ",
"S D M B S R U r q.R R W A n R W R A A A A A A A A A A A A A A A A A A A A A A z r W W W W W W W W W W R W D R R R R R R W W R R ",
"M M A D S D R 8 9.U E U W U R R E m A A A A A A A A e A A A A A A A A A A A C l q W W R U W R W S D D D D D E T E T E I R I R M ",
"n M B n M n T e 8.U I U m U b U A b b C b A b A b m m m A b C r b A R W R R A l r U R S S M M M D D D M B n T K D n A I I S M M ",
"n n M n n n n 7 7.7 H I b I b I b b b 0 e b 7 b 7 7 7 7 e 7 e 7 b Z b I b b 0 k r I n n n n n n M n n n n n n n n n n n n n 7 n ",
"n 3 n n n n n 7 7.3 q H H b q H q q q 7 8 b b 7 q 7 3 7 8 7 3 7 q q q I q b 3 j S n n n n n n n n n H n n n n n n n n n n n 1 n ",
"x n b x b b 2 3 6.3 q 8 q q q 8 q q 3 1 1 8 1 1 3 1 3 3 1 3 2 1 q q 6 q 6 q 2 -.8 b b x b 2 b b b x b b x 1 x n b b , b b b 2 3 ",
"> x x x x x > > ;.8 , > , > > 2 > > 2 5 2 2 p g.C.l.v 2 p g.l.v > > #.B.C.C.C.y.5 > > > > > > > > > > x > 2 x 6 x x x > > > > > ",
"> 6 6 6 6 6 - > O 5 - > > # # # > > , - - , i f.C.C...1 a g.u.c - *.C.+.- - *.C.r.4 - - - - - - > - - - - > - - - - - 6 4 6 - > ",
"= 6 6 6 5 6 = - O X - # # - # - = - # = - = u g.j.N.u.c u f.u.c d n.u.c = # y b.M.P = = = = = # = # # = = = = - - = 6 = 4 = = = ",
"> b n b > < > <.k X X #     - - # # - - - - p f.r.i.C...i f.u.G $.C.+.3 3 = 4.g.C.X.e e 8 > > : 1 * $ - # - - 2 - - - = = - - - ",
"q.:.:.>.:.,.z z z z ,.,.:.>.>.9.q.q.q.6.q.6.0.m.z.a.B.M.e.m.M.w.x.C.k.q.q.q.q.s.C.t.9.q.q.q.l q.q.q.q.q.q.q.q.q.q.q.q.q.q.9.9.8.",
"r r r r r r r r r r r r r r r r r r r r r L s m.z.6 $.C.O.h.l.J &.C.@.r w r r d.V.} 0 r r w e e w w r r 0 f z ,.,.0 r r r r r r ",
"W W W W ~ ~ ~ ^ ~ W W W W W W W W r r L L L s h.z.q s h.l.v.l.J %.V.l.J r r ( h.M.} ^ ^ Q Q Q Q Q Q Q w K t f ,.r r W W r W W W ",
"W W W W W W W W W W W W W W W W W W W r L L s h.z.M r %.V.C.l.! Q c.C.o.r Q p.C.r.Q Q ^ ^ Q Q Q Q Q Q Q Q Q : ,.r Q r W W W ~ ~ ",
"W W W W W W W W W W W W W W W W W r W r r L / h.z.S Q Z c.C.l.^ Q Q p.C.C.C.C.| Q Q Q ^ Q ^ Q Q / w w w Q Q : ,.r r E W W W ~ ~ ",
"W W W W W W W W W W W W L L L W W r W W W W r r 9.r Q Q Q Q Q Q Q Q Q ^ Q Q Q Q Q Q ^ Q Q ^ Q Q Q Q w w w ^ w ,.r W W W W ~ W W ",
"W L W W W W W T W W L T L L L W W W W W E E L r 9.r Q K Q Q w w Q Q Q Q Q Q Q Q Q Q Q Q Q Q Q Q Q w w L w h 9 ,.r W W W ~ W W L ",
"L W W L W L L L L L L L L L K Y W W W W E Q L e g r Q Q K w w Q Q Q Q Q Q Q Z K ^ w w L K w Q Q Q w w w w w w ,.r R R R ~ R E W ",
"L L L W L W L L L C L L L T K / L L L L L Q L + + w Q w Q Q Q w w K w Q Q w w w w w w w w w w w w Q Q w K 9 9 ,.7 R U U U E K V ",
"C L L L L L L C L L C A A F L L L T L L L L L f z w Q Q w K w w w / Q w Q K w w w K 9 w w K w w w w w w K 9 0 >.e R I H r b q V ",
"C C L F L L C C C F C L L L C L L L L L L L L r z K w Q Q w / w w w w w w w w w w w w w w 9 w w w Q w w 0 w 9 8.7 7 T F q U r H ",
"C C b C D A C C C C C r C C L C C C L L L L L r z w K m w w w w w w w w w w w w w w 9 w 9 w w w w w w Y w w 0 8.3 7 T 8 8 r 8 8 ",
"r r r b C C r C r r r r r C C F C L r C L D F r l 9 9 w w w w w w w w w w w Y w 9 9 w 9 9 9 9 9 w w 0 w 9 9 0 7.3 H H 8 8 3 8 8 ",
"8 r 8 0 0 8 I q 7 e e 7 7 r b q r V C 8 q 0 V 7 j 9 9 w w 0 Y q w w w w 5 w Y w 9 w w 9 9 9 9 0 9 w 0 0 0 9 = 6.1.H 2 5 3 3 7 5 ",
"7 5 8 5 8 8 8 8 3 = * 3 3 3 3 1 8 8 3 8 8 7 3 =  .9 9 < 3 9 < 3 5 t 9 < < < 9 < t < 1 < & < < 5 < < < < < * * ;.> H 2 > > > 5 3 ",
", , , , 1 1 1 - $ * * > 2 > > 2 2 2 2 > 2 2 $ 2 ' & & < < ; 7 > < < < < ; < ; ; 1 < ; ; & & ; ; ; ; ; ; $   ] -.> - > - # - , 1 ",
"= = , = = = - g g h h       $ # # $ # $ # # $ _ ` ` % % % % # # & % % % % % % % & _ ) ) ) ) % ; ; = ; ;     ` -.` - - # # - - - ",
"q.q.4.5.7.;.-.-.-.=.{ [ { =.-.-.;.6.5.6.6.6.5.-.5.5.5.6.8.8.q.q.q.q.8.q.8.8.9.0.q.>.>.;.-.-.-.-.j 6.k 9.8.:.:.,.:.:.:.q.;.8.q.q.",
"8 r r q r r : 2 e W W W W W R r 9.: : r r e r r r r r r r r r r r r r r r r r r 8 r r r r r r z z z + < r r r r r r r r r r r 8 ",
"L L L L L L r W E W W W W W W r 9.2 2 r W r W W W W W W W W W r R W W W W W W W R C r C C C r z z + < w r r r r R W W W W W 8 F ",
"L L L L W L W L W W W W ~ W W r 0.2 r W W W W W W W W W W W W W W W W W W W W W W W W W C C C z z r r Y W W W W W W W L R R R R ",
"W W W W L W W W W W L W W W W r q.2 r E W W C ~ W W C W W W W W W W W W W W A W C W W W W W A z q.r W W W W ~ U L R R R R R I U ",
"W W E L W L W W W L W L W W W r ,.r r r W W C W W C W W W W W E W W W W W A A C C W W W W W C >.,.r W W W R E K R U K D F T V I ",
"W W W L W L T L W L W L L L W ,.,.r r r C W C R C C C C C A C A C C C C C W C W C W W W R W r r >.0 E U U E U U V V F V V V B I ",
"W W W T L L C C C L L L L J W r ,.r r W C C C R W C W A C C C C C C C C C W C C C C W C R R R e :.0 U U U V U V V V B B B H H B ",
"E A L F C C L F C L L L L L L r l r e C C C C C C C C C C C C C C C C C C C R R R b C C r U R 7 -.e T T H U V D B 7 8 B V B H H ",
"b C r C D C b C C Z F F D K F 0 l e C C C r C C C e r e b r C b C C q C C q r q r q q q q I H 7 =.3 8 8 8 M 8 7 B 8 N M 5 H H H ",
"q q C q b q b r D V V q V D V 7 j e b q q b q e 7 7 e 7 7 J C r q q 7 8 3 r q 8 7 8 8 7 8 H H = { 3 5 5 M 5 3 4 5 7 5 3 5 7 5 1 ",
"8 3 8 q q 0 q 0 D B B B B B 3 3 =.= 8 r r 8 8 3 8 3 3 3 3 3 3 3 3 3 7 3 8 8 2 7 7 7 4 7 7 N < * ] > 3 5 1 5 > 1 1 1 1 1 > 1 1 1 ",
"3 3 7 8 H 8 8 8 7 7 N M 3 3 3 3 { = 3 8 7 3 3 3 3 3 2 3 2 2 2 , 2 2 2 2 2 4 3 7 > 3 1 1 > - > - _ - $ - - - 1 , N , 1 - - - - - ",
"* 3 2 2 , 1 < 5 n N > , n , 2 > [ * $ > > > > > > > > > $ 2 > > > > - > - - - , , - - - - # # h ) # - - - - , - - - - = - # # # ",
"* $ * * & * & &     . $ $ $ $ ' ] ' $ $ > > > : - : - # - - - - - = #   # # = - = - = # # # # g g # # $ $ $ $ $ # $ $ $ # # # # ",
"7.6.5.5.5.3.3.3.2.3.3.3.3.3.3.3.3.4.5.4.4.5.5.5.5.5.5.5.5.5.5.4.4.4.4.5.5.5.5.4.5.1.1.1.1.1.1.1.5.4.5.3.4.4.1.4.3.3.1.4.5.5.4.1."
};
