/* XPM */
static char *we[] = {
/* columns rows colors chars-per-pixel */
"64 64 153 2 ",
"   c #2D1A1A",
".  c #341E1E",
"X  c #262524",
"o  c #3A2121",
"O  c #302F2D",
"+  c #343331",
"@  c #3E3D3B",
"#  c #441D1D",
"$  c #481F1F",
"%  c #45201D",
"&  c #48221F",
"*  c #4B2120",
"=  c #542323",
"-  c #5C2424",
";  c #5F2925",
":  c #5E2828",
">  c #622726",
",  c #682723",
"<  c #622A26",
"1  c #6D2926",
"2  c #642928",
"3  c #6C2B2B",
"4  c #772323",
"5  c #742C25",
"6  c #7B2C24",
"7  c #732E2C",
"8  c #782F2A",
"9  c #6E312C",
"0  c #74322D",
"q  c #7C322C",
"w  c #7E392E",
"e  c #763230",
"r  c #793232",
"t  c #41403D",
"y  c #57224E",
"u  c #5E2651",
"i  c #421C72",
"p  c #5A2577",
"a  c #612778",
"s  c #602D79",
"d  c #79367E",
"f  c #474643",
"g  c #504E4C",
"h  c #53514E",
"j  c #6C6966",
"k  c #6E6D69",
"l  c #706E6B",
"z  c #74736F",
"x  c #861C1C",
"c  c #802F27",
"v  c #862C2C",
"b  c #9A2727",
"n  c #83342C",
"m  c #8A362C",
"M  c #85382F",
"N  c #8E392F",
"B  c #9C3826",
"V  c #953C2D",
"C  c #993E2E",
"Z  c #833631",
"A  c #8B3030",
"S  c #843B31",
"D  c #8A3A32",
"F  c #913632",
"G  c #913C31",
"H  c #9C3F30",
"J  c #A23E2A",
"K  c #A83632",
"L  c #99402F",
"P  c #9C4332",
"I  c #A5432E",
"U  c #A8452F",
"Y  c #A64A2E",
"T  c #B45227",
"R  c #A54631",
"E  c #A94731",
"W  c #A74832",
"Q  c #AB4932",
"!  c #AB5132",
"~  c #B95132",
"^  c #BF5D32",
"/  c #C3563F",
"(  c #C35E3F",
")  c #CC7624",
"_  c #D67132",
"`  c #AB517E",
"'  c #846B66",
"]  c #856E69",
"[  c #87726C",
"{  c #89746E",
"}  c #8B7771",
"|  c #8E7C76",
" . c #8F7F79",
".. c #E49032",
"X. c #91827C",
"o. c #E59A4E",
"O. c #E79C52",
"+. c #F2AD5A",
"@. c #FFBE77",
"#. c #FFBF79",
"$. c #FFC47E",
"%. c #65569D",
"&. c #6278BE",
"*. c #767CBE",
"=. c #938680",
"-. c #958B85",
";. c #978E88",
":. c #99948D",
">. c #9B9790",
",. c #9B9891",
"<. c #B49286",
"1. c #B89E91",
"2. c #B9A38F",
"3. c #B9A495",
"4. c #BAA699",
"5. c #BBAC9D",
"6. c #BDB09F",
"7. c #BEB3A4",
"8. c #BEB7A9",
"9. c #BFB8AA",
"0. c #BAA7BC",
"q. c #E79D9D",
"w. c #C0BBAD",
"e. c #FFDF9C",
"r. c #FFE09D",
"t. c #E0C7AD",
"y. c #EAD1AD",
"u. c #EAD2BB",
"i. c #FFE3A1",
"p. c #FFFFBE",
"a. c #8B9DDE",
"s. c #AB90C1",
"d. c #91A2E0",
"f. c #9DBEFF",
"g. c #C0BBC9",
"h. c #A8C1FF",
"j. c #B2DFFF",
"k. c #FFE7C4",
"l. c #FFFFC1",
"z. c #FFFFDF",
"x. c #C0D2E4",
"c. c #C8C8FF",
"v. c #CADBF2",
"b. c #D5E1FF",
"n. c #CCFFFF",
"m. c #D4FFFF",
"M. c #DDFFFF",
"N. c LightYellow",
"B. c #E0F4FF",
"V. c #E5FFFF",
"C. c #FFFFF2",
"Z. c #F2FFFF",
"A. c white",
/* pixels */
",.< : r r r r r r r r Z r Z r Z r Z r Z r r r r r r r r r r w.w.w.w.r r r r r r r r r r r r r r r r r r r r r r r r Z D D G w.,.",
"< : 2 Q Q Q Q Q Q Q G G G G G r r r r r r r r Z r G P G r G G w.w.r / / / / r r r r r r r r r r r r r r r Q r F Q D S S u S 2 ,.",
": Q Q Q Q Q Q Q Q G Q Q G R W W W Q Q Q Q Q Q Q G G G W G G G w.r / Q Q Q Q Q Q / Q Q Q Q Q Q W Q Q Q r Q Q W W Q W D r r r : w.",
": Q Q Q Q Q Q Q Q Q Q Q Q G Q Q W Q Q Q Q Q Q Q Q G Q Q Q G G w.r / Q Q / Q Q Q Q Q Q W / W W W Q W Q Q Q W Q D Q W D D S r 2 w.",
": Q E E Q E G Q Q E E Q G Q G G G G Q Q Q R R Q W W W W G G G w.r Q Q Q Q Q Q Q Q Q Q Q Q Q W Q W K D W W Q W W W W D D D r r 0.",
": Q E E W G D G Q Q G Q G G G G E G G Q R Q R R W W R R G r G w.r Q Q W Q D Q Q W E W Q W W Q R Q Q D W W D W R W W W E D r r w.",
": R N N D N D G G N G N G G G D G G G G G Q R R W R r G G r G w.r Q W D W D D Q E D D Q Z E D D D R D Z D D D D Z D Z D Z W S 8.",
"- R D N U V F N N N N F G D r G m G G D G F G G F G r r r r r w.r Q R R Q D Q D D Z Q D D D D D D D D D D Z D Z D Z D Z Z Z Z 7.",
"= D N N m D 7 N N 7 N F D e 7 e e D N V W N D e D N e e r e r 9.r W D Q D Z Q D D D D Z D Z D Z e r e Z Z Z Z Z Z Z Z Z n n r -.",
"= m m m m A 7 7 7 7 7 D D m N 7 D 7 m N 7 e e D 7 e e e 0 0 r 8.r H Z Z Z Z Z Z Z Z D n E Z Z e 7 e Z 7 Z Z v Z r n J n q n q -.",
"= 7 m m m m m m 7 7 7 7 m D m m e 7 9 0 7 7 7 7 e 7 e - 7 7 e 8.r H A e Z 7 Z Z Z Z n n Z v 7 7 7 3 3 7 7 3 3 3 3 c q 3 8 8 = -.",
"= 7 n 7 3 m 3 7 7 3 7 9 7 m 7 7 9 9 e 0 7 7 7 e 7 7 7 = : 7 - 8.e A Z 3 3 9 v 3 3 3 n 8 8 r 3 3 3 3 3 3 = 2 2 2 2 2 8 > 8 > } =.",
"* 3 3 7 Z m 3 7 3 3 7 3 n 3 3 7 = = = 9 3 7 3 9 7 3 7 3 3 = = 8.3 r 8 3 n 3 3 3 3 3 3 8 8 3 2 2 2 2 * * : * * : > > > > > 1 , -.",
"= 3 3 n 3 9 3 3 3 3 = = = = * = & & = & = 3 3 3 3 7 7 7 9 : : 9.e 7 7 e 2 7 1 2 > > > > > > > * > $ $ $ : * $ : - - - - > - $ -.",
"3. .7 3 9 = = = - = = = = = = =.@ @ t y : = : o o : - = = = X.k  .7 7 9 7 3 3 > > 2 2 2 > 3 2 2 = . . = = = o = 3 3 3 3 2 * = | ",
",.,.,.,.,.,.9.9.9.8.w.w.w.w.w.,.,.,.,.,.,.,.,.9.9.9.,.,.,.,.z z z ,.9.9.8.w.,.,.,.,.,.w.w.w.w.w.9.w.w.w.9.9.9.9.9.9.w.w.+ + ,.,.",
"r r r r r > + f ,.r r r r r r r r r r r r r r r r r r r r Q Q Q r r r D r r r ,.r r Q Q r r r r W Q Q Q r r r r r r r r E Q r r ",
"Q Q Q r r r r + ,.r r / / / Q Q Q E Q Q Q Q Q Q Q Q Q Q Q Q Q Q Q Q Q D Q D r ,.r Q Q Q Q Q r Q Q Q Q Q Q Q r Q Q Q Q / Q Q Q Q ",
"Q Q Q Q Q r r r ,.r Q Q E / Q Q Q Q Q Q Q Q Q Q Q / Q Q Q Q Q Q Q Q Q / Q D r ,.r Q Q / Q Q r Q Q Q Q Q Q Q Q Q Q Q Q / / Q Q Q ",
"E Q E Q E Q r r ,.r Q / / Q Q Q / / Q Q D D Q Q Q Q Q Q Q Q Q Q Q Q Q Q / Q D z r Q Q / / Q Q Q Q F Q Q Q Q Q Q Q Q Q Q Q Q Q Q ",
"Q G G G E Q e r w.8 E Q E N U Q Q W Q D D Q Q Q Q D D D D D D D D L W W Q D r z r Q Q Q Q Q / Q Q Q Q G G Q Q Q Q Q E E Q Q Q Q ",
"F G D V G E E e w.E E E D D Q Q E D D D D D D D D D D D D D D D D D D D D D D z r Q Q Q Q Q Q Q Q Q Q Q Q G E W E E E W E E Q Q ",
"V N V D N G E e w.U E U U E U Q U N D D D D D D D D r S D D D D D D D D D D D l r U Q E U Q E E F G G G G G R R W R R R R R E F ",
"m m N N N G K 8 8.U I W n U n U M M n D n M Z D n M D n S D A e M D W W U E m l r U U F F G D V G G G D V N H I F m N R J N N V ",
"m m m N m m m 7 w.1 J J n I n I w n n 7 7 n 7 Z 7 7 7 7 e 7 e 7 w n n I n n 0 k e I m m m m m m m m m m m m m m m m m m F m 7 m ",
"m 3 m m n m m 7 w.1 n J J n q I q q q 7 n v q 7 q 7 7 7 8 7 3 7 q q q I n q 3 j V n m m m m n m m m I m m m m m m m m n m m 1 m ",
"v n n c n n 2 3 w.2 8 q 8 q q 8 q q 3 3 3 8 1 1 3 1 3 2 1 3 1 , q 8 q q 8 q 2 -.q n c n v 2 n n c c c m v 1 c v n c 3 n n n 2 2 ",
", c c c c c > , -.8 , , > > , , , > , 5 2 > > 6 f.A.O.2 > &.A.p.b > 5 *.A.O.a M.A.A.A.A.#.> , > 2 2 > c > < c c c c c , > > > , ",
"- 6 6 6 6 6 > - O 5 > > > # # # - > - - - , - - &.A.@.1 1 a.A.A.) - - a.A.) p M.e.4 - > - > - - - - > - > - - - - > > c 6 6 - - ",
"= 6 6 6 6 5 = = O X = # # - # - - = # - - - - 1 p n.e.4 y j.A.A.o.= y j.p.x i M.e.4 = = = = = # = # # = = = - = = = 4 = 6 = = - ",
"2 n n m > < > <.j X X $     - - # # - - - - - - u j.z.T a n.q.m.e.v %.V.$.= 0.M.k.A e e 8 : - - 1 = # = $ = - , - - = = - = - = ",
"w.:.>.>.:.>.z z z z :.,.:.:.,.w.w.w.7.w.7.7.8.8.8.v.A.y.x.A.u.B.C.t.x.A.y.8.g.V.A.A.A.C.t.w.z w.w.w.w.w.w.w.w.w.w.w.w.w.w.w.w.8.",
"r r r r r r r r r r r r r r r r r r r r r P r 9.9.%.V.#.d.l.J d.A._ h.N.^ w d m.i.G r r w r w 0 w w 0 r w g z ,.,.9 r r r r r r ",
"Q Q Q Q / / / / / Q Q Q Q Q Q Q Q r r P P P r r w.s m.k.b.i.D &.A.u.m.r.F r ` m.i.~ ( ( ! ! ! ! ! ! ! r w : f ,.r r W W r W Q Q ",
"Q Q Q Q Q Q Q Q Q Q Q Q Q Q Q Q Q Q Q r P P r r w.r h.A.A.+.! ` V.A.A.+.r ! ` V.i.~ ! ( ( Y ! ! ! ! ! ! ! ! : ,.r ! e ! Q Q / / ",
"Q Q Q Q Q Q Q Q Q Q Q Q Q Q Q Q Q r Q r r P P r 9.r s.A.A...! ! c.A.z._ ! ! ` V.A.A.Z.Z.e./ ! ! w w w L ! ! : ,.r r ! W Q Q / / ",
"Q Q Q Q Q Q Q Q Q Q Q Q P P P Q Q r Q Q Q Q r r w.w ! ! ! ! ! ( ! ! ! ( ! ! ! ! ! ! ( ! ! ( ! ! ! ! S S S ( r ,.r Q E E Q / Q Q ",
"Q P Q Q Q Q Q P Q Q P P P P P Q Q Q Q Q W W P r w.w ! w ! ! S S ! ! ! ! ! ! ! ! ! ! ! ! ! ! ! ! ! w S w w h w ,.r Q E E / Q Q P ",
"W Q Q P Q P P W P P P P P P P Q Q Q Q Q ! W P e g e ! ! w w w ( ! ! ! ! ! ! L w ( w w P L w ! ! ! w w w w e e ,.r E E E / Q W Q ",
"P P P Q P Q P P P D P P P P P P P P P P P W P + + w ! L ! ! ! S w w L ! ! w w w w w w w w w w w L ! ! w L 9 e ,.r E R E R Q P G ",
"Z P P P P P P Z P P Z Z D P P P P P P P P P P g z w ! ! w w S S w S ! S ! w w w w w w w L w w w w w w w w 0 0 >.e E E K n w q V ",
"r Z P H P P Z Z Z P Z P P P Z P P P P P P P P r z L w ! ! L w w w S w S L w w w L w 9 w 0 0 w w w ! w w w w 0 9.7 7 J C q U q I ",
"Z Z Z Z H Z Z D Z Z Z r D Z H Z S Z P P P P H r z w L w w w w w w w w S w w w w w w e w 0 w w w w w w Y w w 0 9.7 7 H r q 8 8 8 ",
"r r r Z r Z Z r e r r r r Z Z H S P Z r H H G r k 9 0 w w w w w w w w w w w Y w 9 9 w 9 9 9 9 9 w w 0 w 0 9 9 7.3 J J 8 7 3 8 8 ",
"8 8 8 8 r r U 8 7 7 e e 7 Z Z r r C r Z r e C 7 j 9 9 w w w Y q w w w w 0 0 P w 9 w w 9 1 0 9 9 9 w 9 6 q 3 = 6.1.J 2 5 3 3 7 7 ",
"5 5 8 5 7 7 8 8 3 = * 3 3 3 1 3 8 8 3 8 e 7 3 = X.9 2 9 2 2 3 3 9 9 < 9 9 < 9 < t : < 1 & < < 5 < < < < 2 & * ;.> J > > > > 1 5 ",
"2 1 , 1 1 1 1 > * * $ > > > > , 2 2 > > > > $ > } & * < < < 3 < : ; ; ; ; ; ; ; 9 ; ; ; & & ; ; ; ; < ; $   } -.> - - > # > 1 1 ",
"- = > = - = = g g h g       # # $ $ # $ $ $ # ] [ [ % % % % # # + * % % % % % % & ' ' ' ] ] % ; = ; ; ;     { -.] - - # # - - = ",
"6.7.7.5.8.;.-.;.=.=.| |  .=.-.-.;.7.5.7.5.6.5.=.6.5.5.6.8.8.9.w.w.w.w.w.9.9.9.w.w.>.:.;.-.-.-.-.j 6.z 9.8.:.:.,.:.:.:.w.;.8.w.w.",
"r r r r r r 2 : r Q Q Q E Q E r w.: 2 e r r r r r r r r r r e r r r r r r r r r r r r r r r r z z z + ; r r r r r r r r r r e 8 ",
"P P H P P P r Q Q Q Q Q Q Q E r 9.: 2 r Q r Q Q Q Q Q Q Q Q Q r E E Q Q W Q Q Q E Z r Z D Z r z z + ; w r r r r E Q Q Q Q Q e H ",
"P P P P Q P Q P Q Q Q Q / Q Q r 9.2 r W Q Q Q Q Q Q Q Q Q Q Q Q Q E Q Q Q Q Q Q E E Q Q Z Z Z z z e e Y Q Q Q Q Q Q Q P E Q E E ",
"Q Q Q Q R Q Q Q Q Q P Q Q Q Q r w.2 r W Q Q Z / Q Q Z Q Q Q Q Q Q Q Q Q Q Q Z Q A Q Q Q Q Q D z w.w Q Q E Q / U P Q E E E E U U ",
"Q Q Q P Q P Q Q Q P Q P Q Q Q r ,.r r r Q Q Z Q Q Z Q Q Q Q Q Q Q Q Q Q Q Z Z Z Z Q Q Q Q Q Z ,.,.e W Q Q E E P U E C C C U C J ",
"Q Q Q P Q P P P Q P Q P P P Q ,.,.r r r D Q Z E Z Z Z D Z Z Z Z Z Z D Z Z Q Z Q D Q Q Q E Q e e >.e W W U E U U C C G C C C C J ",
"Q Q Q P P P Z Z Z P P P P R Q r ,.r r Q Z Z Z E Q Z Q Z Z D Z D Z Z Z Z D Q Z Z Z Z Q Z E E E e :.e U U U C I C C V V V V U J V ",
"E Z H P Z Z P P Z P P P P P P r z e r Z Z Z Z Z Z Z Z Z Z Z Z Z Z Z Z Z Z Z Q E E Z n r Z E R 7 ;.7 J R J I C F V 8 q V J m J J ",
"r Z Z Z C Z q Z Z Z C C C C C e l e Z r Z Z Z Z r e Z e Z Z Z r Z Z r v Z r r n r v q q q I I 3 =.7 8 8 8 m 8 8 m 7 m m 8 J J J ",
"n q q q q r q n G C C r C G G 7 j 7 8 Z r n r 7 7 7 7 7 7 R r v r r 3 q 7 8 8 8 8 8 8 8 8 J J =  .3 5 7 V 5 5 7 8 5 5 5 3 5 5 5 ",
"q 3 q q 8 q q 8 V V V V V V 3 7 =.- 8 8 8 8 8 7 e 3 7 3 3 2 3 3 3 3 8 3 7 7 1 7 7 7 1 7 5 B 2 * } > 5 1 1 5 > 1 5 1 3 1 > 5 1 1 ",
"3 3 8 8 J 8 8 8 8 6 m m 3 3 3 2  .= 3 8 7 3 3 3 3 3 3 > 3 2 > > > > > > > 5 3 5 > 1 1 1 > > - > ] - # - - - 1 , B 1 2 > - > - > ",
"* 2 2 > , 1 2 7 m m 1 , m , 1 2 | * * > > 2 > 2 > > > > $ > > > > - > > > - - , , - - - = # # h ] # = - - - , - - - - = = # # # ",
"* * * * & * & & .   . $ * * $ } { { $ $ > - > - - > - $ - - - - - - $   # $ = = = - = # # # # g g # $ $ $ $ $ $ # $ # # # # # # ",
"6.6.6.5.4.3.3.3.3.2.3.3.3.3.1.3.4.4.4.4.5.5.5.5.5.5.5.5.5.5.5.4.5.4.4.4.4.4.4.w.5.1.1.1.1.1.1.4.4.4.4.4.4.1.4.4.3.1.4.4.5.4.3.1."
};
